<svg xmlns="http://www.w3.org/2000/svg" width="1920" height="720"><path d="M599,867L136,934L1139,922Z" fill="#cb693b" stroke="#cb693b" stroke-width="1.51"/><path d="M414,-198L707,-182L1316,-173Z" fill="#ffcc80" stroke="#ffcc80" stroke-width="1.51"/><path d="M707,-182L1057,-145L1316,-173Z" fill="#ffbd76" stroke="#ffbd76" stroke-width="1.51"/><path d="M1139,922L136,934L1373,928Z" fill="#c55634" stroke="#c55634" stroke-width="1.51"/><path d="M1682,-143L1783,-126L1898,-142Z" fill="#eb9064" stroke="#eb9064" stroke-width="1.51"/><path d="M1841,831L1533,931L1926,846Z" fill="#b60425" stroke="#b60425" stroke-width="1.51"/><path d="M2076,452L1982,621L2081,629Z" fill="#c42327" stroke="#c42327" stroke-width="1.51"/><path d="M1926,-21L2035,181L2106,-48Z" fill="#d17d4e" stroke="#d17d4e" stroke-width="1.51"/><path d="M2035,181L2071,339L2106,-48Z" fill="#ca6d40" stroke="#ca6d40" stroke-width="1.51"/><path d="M2071,339L2076,452L2106,-48Z" fill="#c76038" stroke="#c76038" stroke-width="1.51"/><path d="M1926,846L1533,931L2107,870Z" fill="#ae0026" stroke="#ae0026" stroke-width="1.51"/><path d="M2081,629L2039,737L2107,870Z" fill="#af0525" stroke="#af0525" stroke-width="1.51"/><path d="M2076,452L2081,629L2107,870Z" fill="#b90f23" stroke="#b90f23" stroke-width="1.51"/><path d="M414,-198L1316,-173L2127,-163Z" fill="#ffa86f" stroke="#ffa86f" stroke-width="1.51"/><path d="M1682,-143L1898,-142L2127,-163Z" fill="#e18d67" stroke="#e18d67" stroke-width="1.51"/><path d="M1316,-173L1682,-143L2127,-163Z" fill="#f19466" stroke="#f19466" stroke-width="1.51"/><path d="M1898,-142L2106,-48L2127,-163Z" fill="#d08663" stroke="#d08663" stroke-width="1.51"/><path d="M2076,452L2107,870L2127,-163Z" fill="#c34b31" stroke="#c34b31" stroke-width="1.51"/><path d="M2106,-48L2076,452L2127,-163Z" fill="#c77649" stroke="#c77649" stroke-width="1.51"/><path d="M1926,-21L1915,156L2035,181Z" fill="#d77746" stroke="#d77746" stroke-width="1.51"/><path d="M1898,-142L1926,-21L2106,-48Z" fill="#d8855d" stroke="#d8855d" stroke-width="1.51"/><path d="M2039,737L1926,846L2107,870Z" fill="#aa0026" stroke="#aa0026" stroke-width="1.51"/><path d="M2035,181L1891,295L2071,339Z" fill="#d05f36" stroke="#d05f36" stroke-width="1.51"/><path d="M2071,339L1910,452L2076,452Z" fill="#cc472e" stroke="#cc472e" stroke-width="1.51"/><path d="M1910,452L1982,621L2076,452Z" fill="#ce2e29" stroke="#ce2e29" stroke-width="1.51"/><path d="M1982,621L2039,737L2081,629Z" fill="#bd0d22" stroke="#bd0d22" stroke-width="1.51"/><path d="M1891,295L1910,452L2071,339Z" fill="#d35431" stroke="#d35431" stroke-width="1.51"/><path d="M1915,156L1891,295L2035,181Z" fill="#d66939" stroke="#d66939" stroke-width="1.51"/><path d="M1956,728L1926,846L2039,737Z" fill="#b60325" stroke="#b60325" stroke-width="1.51"/><path d="M1982,621L1956,728L2039,737Z" fill="#be0a23" stroke="#be0a23" stroke-width="1.51"/><path d="M337,886L136,934L599,867Z" fill="#cf7b4c" stroke="#cf7b4c" stroke-width="1.51"/><path d="M1316,-173L1471,-124L1682,-143Z" fill="#fd9b65" stroke="#fd9b65" stroke-width="1.51"/><path d="M1815,79L1915,156L1926,-21Z" fill="#df7f4a" stroke="#df7f4a" stroke-width="1.51"/><path d="M1910,452L1763,586L1982,621Z" fill="#d62827" stroke="#d62827" stroke-width="1.51"/><path d="M1793,718L1956,728L1982,621Z" fill="#c70b23" stroke="#c70b23" stroke-width="1.51"/><path d="M1763,586L1793,718L1982,621Z" fill="#d21523" stroke="#d21523" stroke-width="1.51"/><path d="M1891,295L1817,405L1910,452Z" fill="#dc5130" stroke="#dc5130" stroke-width="1.51"/><path d="M1841,831L1926,846L1956,728Z" fill="#b90026" stroke="#b90026" stroke-width="1.51"/><path d="M1793,718L1841,831L1956,728Z" fill="#c30525" stroke="#c30525" stroke-width="1.51"/><path d="M1597,850L1533,931L1841,831Z" fill="#bd0924" stroke="#bd0924" stroke-width="1.51"/><path d="M1783,-126L1784,-25L1898,-142Z" fill="#e88d5f" stroke="#e88d5f" stroke-width="1.51"/><path d="M1786,234L1891,295L1915,156Z" fill="#df6a37" stroke="#df6a37" stroke-width="1.51"/><path d="M1898,-142L1784,-25L1926,-21Z" fill="#e3895b" stroke="#e3895b" stroke-width="1.51"/><path d="M1784,-25L1815,79L1926,-21Z" fill="#e48552" stroke="#e48552" stroke-width="1.51"/><path d="M1817,405L1763,586L1910,452Z" fill="#df3a29" stroke="#df3a29" stroke-width="1.51"/><path d="M1815,79L1786,234L1915,156Z" fill="#e2753e" stroke="#e2753e" stroke-width="1.51"/><path d="M1786,234L1817,405L1891,295Z" fill="#e15f33" stroke="#e15f33" stroke-width="1.51"/><path d="M1678,116L1786,234L1815,79Z" fill="#e8793f" stroke="#e8793f" stroke-width="1.51"/><path d="M1623,528L1763,586L1817,405Z" fill="#e43526" stroke="#e43526" stroke-width="1.51"/><path d="M1786,234L1625,281L1817,405Z" fill="#e66232" stroke="#e66232" stroke-width="1.51"/><path d="M1793,718L1597,850L1841,831Z" fill="#c60624" stroke="#c60624" stroke-width="1.51"/><path d="M1763,586L1676,681L1793,718Z" fill="#d71320" stroke="#d71320" stroke-width="1.51"/><path d="M1676,681L1597,850L1793,718Z" fill="#cf0e22" stroke="#cf0e22" stroke-width="1.51"/><path d="M1784,-25L1678,116L1815,79Z" fill="#e9844a" stroke="#e9844a" stroke-width="1.51"/><path d="M1615,422L1623,528L1817,405Z" fill="#e84629" stroke="#e84629" stroke-width="1.51"/><path d="M1625,281L1615,422L1817,405Z" fill="#e95a2d" stroke="#e95a2d" stroke-width="1.51"/><path d="M1682,-143L1678,-41L1783,-126Z" fill="#ef915f" stroke="#ef915f" stroke-width="1.51"/><path d="M1783,-126L1678,-41L1784,-25Z" fill="#ec8d5a" stroke="#ec8d5a" stroke-width="1.51"/><path d="M1678,-41L1678,116L1784,-25Z" fill="#ed884f" stroke="#ed884f" stroke-width="1.51"/><path d="M1678,116L1625,281L1786,234Z" fill="#ea7135" stroke="#ea7135" stroke-width="1.51"/><path d="M1623,528L1676,681L1763,586Z" fill="#e02522" stroke="#e02522" stroke-width="1.51"/><path d="M-198,-167L-39,-169L117,-184Z" fill="#fff5b3" stroke="#fff5b3" stroke-width="1.51"/><path d="M1623,528L1496,595L1676,681Z" fill="#e5271f" stroke="#e5271f" stroke-width="1.51"/><path d="M1529,749L1597,850L1676,681Z" fill="#d41121" stroke="#d41121" stroke-width="1.51"/><path d="M1466,109L1625,281L1678,116Z" fill="#f27a39" stroke="#f27a39" stroke-width="1.51"/><path d="M1466,109L1678,116L1678,-41Z" fill="#f38947" stroke="#f38947" stroke-width="1.51"/><path d="M1451,-38L1466,109L1678,-41Z" fill="#f88f4e" stroke="#f88f4e" stroke-width="1.51"/><path d="M1471,-124L1678,-41L1682,-143Z" fill="#f7945d" stroke="#f7945d" stroke-width="1.51"/><path d="M1496,595L1529,749L1676,681Z" fill="#e0191d" stroke="#e0191d" stroke-width="1.51"/><path d="M1471,-124L1451,-38L1678,-41Z" fill="#fa9459" stroke="#fa9459" stroke-width="1.51"/><path d="M1537,327L1615,422L1625,281Z" fill="#ef612d" stroke="#ef612d" stroke-width="1.51"/><path d="M1057,-145L1223,-147L1316,-173Z" fill="#ffad6e" stroke="#ffad6e" stroke-width="1.51"/><path d="M1615,422L1537,450L1623,528Z" fill="#ee4426" stroke="#ee4426" stroke-width="1.51"/><path d="M1466,109L1537,327L1625,281Z" fill="#f37232" stroke="#f37232" stroke-width="1.51"/><path d="M1537,327L1537,450L1615,422Z" fill="#f15629" stroke="#f15629" stroke-width="1.51"/><path d="M1537,450L1496,595L1623,528Z" fill="#ef3622" stroke="#ef3622" stroke-width="1.51"/><path d="M1529,749L1533,931L1597,850Z" fill="#c90f22" stroke="#c90f22" stroke-width="1.51"/><path d="M1496,595L1349,757L1529,749Z" fill="#e22420" stroke="#e22420" stroke-width="1.51"/><path d="M1349,757L1373,928L1529,749Z" fill="#d52225" stroke="#d52225" stroke-width="1.51"/><path d="M1529,749L1373,928L1533,931Z" fill="#c61924" stroke="#c61924" stroke-width="1.51"/><path d="M1466,109L1322,274L1537,327Z" fill="#f87834" stroke="#f87834" stroke-width="1.51"/><path d="M1322,274L1319,433L1537,327Z" fill="#f86b30" stroke="#f86b30" stroke-width="1.51"/><path d="M1385,563L1496,595L1537,450Z" fill="#f13b23" stroke="#f13b23" stroke-width="1.51"/><path d="M1537,327L1319,433L1537,450Z" fill="#f55b2b" stroke="#f55b2b" stroke-width="1.51"/><path d="M1319,433L1385,563L1537,450Z" fill="#f64b28" stroke="#f64b28" stroke-width="1.51"/><path d="M716,842L599,867L1139,922Z" fill="#d05d35" stroke="#d05d35" stroke-width="1.51"/><path d="M1451,-38L1360,35L1466,109Z" fill="#fc934d" stroke="#fc934d" stroke-width="1.51"/><path d="M1334,126L1322,274L1466,109Z" fill="#fb853d" stroke="#fb853d" stroke-width="1.51"/><path d="M1385,563L1349,757L1496,595Z" fill="#ec2f20" stroke="#ec2f20" stroke-width="1.51"/><path d="M1316,-173L1451,-38L1471,-124Z" fill="#ff9e62" stroke="#ff9e62" stroke-width="1.51"/><path d="M1360,35L1334,126L1466,109Z" fill="#fc8f47" stroke="#fc8f47" stroke-width="1.51"/><path d="M1316,-173L1360,35L1451,-38Z" fill="#ff9c5b" stroke="#ff9c5b" stroke-width="1.51"/><path d="M864,833L716,842L1139,922Z" fill="#d25833" stroke="#d25833" stroke-width="1.51"/><path d="M1234,389L1319,433L1322,274Z" fill="#fc6d31" stroke="#fc6d31" stroke-width="1.51"/><path d="M1316,-173L1223,-147L1360,35Z" fill="#ffa363" stroke="#ffa363" stroke-width="1.51"/><path d="M1349,757L1139,922L1373,928Z" fill="#cf2c28" stroke="#cf2c28" stroke-width="1.51"/><path d="M1319,433L1163,534L1385,563Z" fill="#fb4c29" stroke="#fb4c29" stroke-width="1.51"/><path d="M1163,534L1197,708L1385,563Z" fill="#f54326" stroke="#f54326" stroke-width="1.51"/><path d="M1197,708L1349,757L1385,563Z" fill="#ec3322" stroke="#ec3322" stroke-width="1.51"/><path d="M1232,139L1322,274L1334,126Z" fill="#fe873d" stroke="#fe873d" stroke-width="1.51"/><path d="M1197,708L1139,922L1349,757Z" fill="#de3629" stroke="#de3629" stroke-width="1.51"/><path d="M1223,-147L1142,-19L1360,35Z" fill="#ffa35d" stroke="#ffa35d" stroke-width="1.51"/><path d="M1232,139L1334,126L1360,35Z" fill="#ff9248" stroke="#ff9248" stroke-width="1.51"/><path d="M1142,-19L1232,139L1360,35Z" fill="#ff9c50" stroke="#ff9c50" stroke-width="1.51"/><path d="M707,-182L834,-131L1057,-145Z" fill="#ffc77a" stroke="#ffc77a" stroke-width="1.51"/><path d="M1234,389L1163,534L1319,433Z" fill="#fd5e2e" stroke="#fd5e2e" stroke-width="1.51"/><path d="M1178,329L1234,389L1322,274Z" fill="#fd7635" stroke="#fd7635" stroke-width="1.51"/><path d="M1232,139L1178,329L1322,274Z" fill="#fe8139" stroke="#fe8139" stroke-width="1.51"/><path d="M1022,858L864,833L1139,922Z" fill="#d04f30" stroke="#d04f30" stroke-width="1.51"/><path d="M1022,858L1139,922L1197,708Z" fill="#d9432c" stroke="#d9432c" stroke-width="1.51"/><path d="M1022,744L1022,858L1197,708Z" fill="#e24b2c" stroke="#e24b2c" stroke-width="1.51"/><path d="M1163,534L1082,588L1197,708Z" fill="#f44f28" stroke="#f44f28" stroke-width="1.51"/><path d="M1004,147L1178,329L1232,139Z" fill="#ff903f" stroke="#ff903f" stroke-width="1.51"/><path d="M1142,-19L1004,147L1232,139Z" fill="#ffa24f" stroke="#ffa24f" stroke-width="1.51"/><path d="M1178,329L1042,433L1234,389Z" fill="#fd7634" stroke="#fd7634" stroke-width="1.51"/><path d="M1042,433L1163,534L1234,389Z" fill="#fd6931" stroke="#fd6931" stroke-width="1.51"/><path d="M1057,-145L1142,-19L1223,-147Z" fill="#ffb069" stroke="#ffb069" stroke-width="1.51"/><path d="M1004,147L991,308L1178,329Z" fill="#fe913e" stroke="#fe913e" stroke-width="1.51"/><path d="M1082,588L1022,744L1197,708Z" fill="#ee4e28" stroke="#ee4e28" stroke-width="1.51"/><path d="M991,308L1042,433L1178,329Z" fill="#fd8338" stroke="#fd8338" stroke-width="1.51"/><path d="M1008,-51L1004,147L1142,-19Z" fill="#ffaf5b" stroke="#ffaf5b" stroke-width="1.51"/><path d="M1042,433L1082,588L1163,534Z" fill="#fc612e" stroke="#fc612e" stroke-width="1.51"/><path d="M1057,-145L1008,-51L1142,-19Z" fill="#ffb367" stroke="#ffb367" stroke-width="1.51"/><path d="M860,569L922,750L1022,744Z" fill="#ee5f2d" stroke="#ee5f2d" stroke-width="1.51"/><path d="M1042,433L860,569L1082,588Z" fill="#fc6b31" stroke="#fc6b31" stroke-width="1.51"/><path d="M860,569L1022,744L1082,588Z" fill="#f35f2b" stroke="#f35f2b" stroke-width="1.51"/><path d="M910,148L1004,147L1008,-51Z" fill="#ffaf55" stroke="#ffaf55" stroke-width="1.51"/><path d="M911,-57L910,148L1008,-51Z" fill="#ffb860" stroke="#ffb860" stroke-width="1.51"/><path d="M879,426L860,569L1042,433Z" fill="#fd7936" stroke="#fd7936" stroke-width="1.51"/><path d="M911,-57L1008,-51L1057,-145Z" fill="#ffbb6c" stroke="#ffbb6c" stroke-width="1.51"/><path d="M834,-131L911,-57L1057,-145Z" fill="#ffc071" stroke="#ffc071" stroke-width="1.51"/><path d="M910,148L991,308L1004,147Z" fill="#fea045" stroke="#fea045" stroke-width="1.51"/><path d="M1022,744L922,750L1022,858Z" fill="#e1562f" stroke="#e1562f" stroke-width="1.51"/><path d="M991,308L879,426L1042,433Z" fill="#fd8739" stroke="#fd8739" stroke-width="1.51"/><path d="M895,316L879,426L991,308Z" fill="#fd913d" stroke="#fd913d" stroke-width="1.51"/><path d="M910,148L895,316L991,308Z" fill="#fe9c42" stroke="#fe9c42" stroke-width="1.51"/><path d="M922,750L864,833L1022,858Z" fill="#dd5931" stroke="#dd5931" stroke-width="1.51"/><path d="M735,607L752,753L860,569Z" fill="#f46e30" stroke="#f46e30" stroke-width="1.51"/><path d="M681,-5L690,133L910,148Z" fill="#ffbc5a" stroke="#ffbc5a" stroke-width="1.51"/><path d="M745,278L895,316L910,148Z" fill="#fea245" stroke="#fea245" stroke-width="1.51"/><path d="M681,-5L910,148L911,-57Z" fill="#ffbd61" stroke="#ffbd61" stroke-width="1.51"/><path d="M752,753L864,833L922,750Z" fill="#e36132" stroke="#e36132" stroke-width="1.51"/><path d="M860,569L752,753L922,750Z" fill="#ee662f" stroke="#ee662f" stroke-width="1.51"/><path d="M690,133L745,278L910,148Z" fill="#feae4c" stroke="#feae4c" stroke-width="1.51"/><path d="M834,-131L681,-5L911,-57Z" fill="#ffc56f" stroke="#ffc56f" stroke-width="1.51"/><path d="M738,480L860,569L879,426Z" fill="#fe7d37" stroke="#fe7d37" stroke-width="1.51"/><path d="M745,278L879,426L895,316Z" fill="#fe9740" stroke="#fe9740" stroke-width="1.51"/><path d="M414,-198L605,-155L707,-182Z" fill="#ffda89" stroke="#ffda89" stroke-width="1.51"/><path d="M745,278L738,480L879,426Z" fill="#fe923e" stroke="#fe923e" stroke-width="1.51"/><path d="M752,753L716,842L864,833Z" fill="#df6436" stroke="#df6436" stroke-width="1.51"/><path d="M738,480L735,607L860,569Z" fill="#fb7835" stroke="#fb7835" stroke-width="1.51"/><path d="M707,-182L681,-5L834,-131Z" fill="#ffcc77" stroke="#ffcc77" stroke-width="1.51"/><path d="M605,-155L681,-5L707,-182Z" fill="#ffd17a" stroke="#ffd17a" stroke-width="1.51"/><path d="M632,491L735,607L738,480Z" fill="#fd8038" stroke="#fd8038" stroke-width="1.51"/><path d="M609,301L632,491L738,480Z" fill="#fe9540" stroke="#fe9540" stroke-width="1.51"/><path d="M609,301L738,480L745,278Z" fill="#fe9f43" stroke="#fe9f43" stroke-width="1.51"/><path d="M690,133L609,301L745,278Z" fill="#fead4a" stroke="#fead4a" stroke-width="1.51"/><path d="M735,607L571,690L752,753Z" fill="#f07233" stroke="#f07233" stroke-width="1.51"/><path d="M571,690L716,842L752,753Z" fill="#e66e36" stroke="#e66e36" stroke-width="1.51"/><path d="M571,690L599,867L716,842Z" fill="#e16f39" stroke="#e16f39" stroke-width="1.51"/><path d="M632,491L555,601L735,607Z" fill="#fb8039" stroke="#fb8039" stroke-width="1.51"/><path d="M555,601L571,690L735,607Z" fill="#f67a36" stroke="#f67a36" stroke-width="1.51"/><path d="M460,840L337,886L599,867Z" fill="#d57645" stroke="#d57645" stroke-width="1.51"/><path d="M681,-5L594,29L690,133Z" fill="#ffc763" stroke="#ffc763" stroke-width="1.51"/><path d="M594,29L581,81L690,133Z" fill="#fec661" stroke="#fec661" stroke-width="1.51"/><path d="M605,-155L594,29L681,-5Z" fill="#ffcf72" stroke="#ffcf72" stroke-width="1.51"/><path d="M581,81L609,301L690,133Z" fill="#feb954" stroke="#feb954" stroke-width="1.51"/><path d="M571,690L460,840L599,867Z" fill="#e2753f" stroke="#e2753f" stroke-width="1.51"/><path d="M464,-41L594,29L605,-155Z" fill="#ffd479" stroke="#ffd479" stroke-width="1.51"/><path d="M581,81L449,186L609,301Z" fill="#ffbc57" stroke="#ffbc57" stroke-width="1.51"/><path d="M449,186L458,246L609,301Z" fill="#ffb855" stroke="#ffb855" stroke-width="1.51"/><path d="M609,301L444,461L632,491Z" fill="#ff9c47" stroke="#ff9c47" stroke-width="1.51"/><path d="M444,461L555,601L632,491Z" fill="#ff8c41" stroke="#ff8c41" stroke-width="1.51"/><path d="M458,246L444,461L609,301Z" fill="#ffad50" stroke="#ffad50" stroke-width="1.51"/><path d="M414,-198L464,-41L605,-155Z" fill="#ffdd88" stroke="#ffdd88" stroke-width="1.51"/><path d="M449,682L460,840L571,690Z" fill="#eb7c40" stroke="#eb7c40" stroke-width="1.51"/><path d="M464,-41L581,81L594,29Z" fill="#ffd06e" stroke="#ffd06e" stroke-width="1.51"/><path d="M464,-41L449,186L581,81Z" fill="#ffce6b" stroke="#ffce6b" stroke-width="1.51"/><path d="M444,461L450,628L555,601Z" fill="#fd8c44" stroke="#fd8c44" stroke-width="1.51"/><path d="M555,601L450,628L571,690Z" fill="#f6813d" stroke="#f6813d" stroke-width="1.51"/><path d="M450,628L449,682L571,690Z" fill="#f4803e" stroke="#f4803e" stroke-width="1.51"/><path d="M321,292L297,454L444,461Z" fill="#ffad57" stroke="#ffad57" stroke-width="1.51"/><path d="M444,461L295,547L450,628Z" fill="#fe934a" stroke="#fe934a" stroke-width="1.51"/><path d="M321,292L444,461L458,246Z" fill="#ffb457" stroke="#ffb457" stroke-width="1.51"/><path d="M449,682L310,710L460,840Z" fill="#eb8246" stroke="#eb8246" stroke-width="1.51"/><path d="M310,710L337,886L460,840Z" fill="#e2814b" stroke="#e2814b" stroke-width="1.51"/><path d="M414,-198L294,-54L464,-41Z" fill="#ffe18a" stroke="#ffe18a" stroke-width="1.51"/><path d="M296,165L449,186L464,-41Z" fill="#ffd16d" stroke="#ffd16d" stroke-width="1.51"/><path d="M294,-54L296,165L464,-41Z" fill="#ffdc7c" stroke="#ffdc7c" stroke-width="1.51"/><path d="M449,186L321,292L458,246Z" fill="#ffbf5c" stroke="#ffbf5c" stroke-width="1.51"/><path d="M117,-184L231,-122L414,-198Z" fill="#ffeb9e" stroke="#ffeb9e" stroke-width="1.51"/><path d="M297,454L295,547L444,461Z" fill="#ff9e51" stroke="#ff9e51" stroke-width="1.51"/><path d="M296,165L321,292L449,186Z" fill="#ffc562" stroke="#ffc562" stroke-width="1.51"/><path d="M310,710L449,682L450,628Z" fill="#f48644" stroke="#f48644" stroke-width="1.51"/><path d="M295,547L310,710L450,628Z" fill="#f98e49" stroke="#f98e49" stroke-width="1.51"/><path d="M231,-122L294,-54L414,-198Z" fill="#ffe694" stroke="#ffe694" stroke-width="1.51"/><path d="M294,-54L175,28L296,165Z" fill="#ffdd80" stroke="#ffdd80" stroke-width="1.51"/><path d="M295,547L155,545L310,710Z" fill="#fc9451" stroke="#fc9451" stroke-width="1.51"/><path d="M152,459L297,454L321,292Z" fill="#ffb05d" stroke="#ffb05d" stroke-width="1.51"/><path d="M310,710L125,788L337,886Z" fill="#e68651" stroke="#e68651" stroke-width="1.51"/><path d="M125,788L136,934L337,886Z" fill="#d68256" stroke="#d68256" stroke-width="1.51"/><path d="M296,165L136,237L321,292Z" fill="#ffc768" stroke="#ffc768" stroke-width="1.51"/><path d="M136,237L152,459L321,292Z" fill="#ffbd65" stroke="#ffbd65" stroke-width="1.51"/><path d="M175,28L133,92L296,165Z" fill="#ffda7c" stroke="#ffda7c" stroke-width="1.51"/><path d="M152,459L295,547L297,454Z" fill="#ffa258" stroke="#ffa258" stroke-width="1.51"/><path d="M155,545L125,788L310,710Z" fill="#f68e52" stroke="#f68e52" stroke-width="1.51"/><path d="M152,459L155,545L295,547Z" fill="#ff9f59" stroke="#ff9f59" stroke-width="1.51"/><path d="M133,92L136,237L296,165Z" fill="#ffd174" stroke="#ffd174" stroke-width="1.51"/><path d="M231,-122L175,28L294,-54Z" fill="#ffe48f" stroke="#ffe48f" stroke-width="1.51"/><path d="M117,-184L175,28L231,-122Z" fill="#ffe999" stroke="#ffe999" stroke-width="1.51"/><path d="M33,533L-43,777L125,788Z" fill="#f4925d" stroke="#f4925d" stroke-width="1.51"/><path d="M133,92L23,114L136,237Z" fill="#ffd67d" stroke="#ffd67d" stroke-width="1.51"/><path d="M2,276L8,405L136,237Z" fill="#ffc572" stroke="#ffc572" stroke-width="1.51"/><path d="M136,237L8,405L152,459Z" fill="#ffbb6b" stroke="#ffbb6b" stroke-width="1.51"/><path d="M33,533L125,788L155,545Z" fill="#fc975a" stroke="#fc975a" stroke-width="1.51"/><path d="M-24,-46L133,92L175,28Z" fill="#ffe48e" stroke="#ffe48e" stroke-width="1.51"/><path d="M117,-184L-24,-46L175,28Z" fill="#ffea9b" stroke="#ffea9b" stroke-width="1.51"/><path d="M-24,-46L23,114L133,92Z" fill="#ffe48d" stroke="#ffe48d" stroke-width="1.51"/><path d="M125,788L-57,872L136,934Z" fill="#d8875e" stroke="#d8875e" stroke-width="1.51"/><path d="M152,459L33,533L155,545Z" fill="#ffa260" stroke="#ffa260" stroke-width="1.51"/><path d="M8,405L33,533L152,459Z" fill="#ffac66" stroke="#ffac66" stroke-width="1.51"/><path d="M-39,-169L-24,-46L117,-184Z" fill="#fff0aa" stroke="#fff0aa" stroke-width="1.51"/><path d="M-43,777L-57,872L125,788Z" fill="#e58d63" stroke="#e58d63" stroke-width="1.51"/><path d="M23,114L2,276L136,237Z" fill="#ffd077" stroke="#ffd077" stroke-width="1.51"/><path d="M-57,872L-110,937L136,934Z" fill="#ce8563" stroke="#ce8563" stroke-width="1.51"/><path d="M-118,698L-43,777L33,533Z" fill="#fa9762" stroke="#fa9762" stroke-width="1.51"/><path d="M-212,159L-157,290L2,276Z" fill="#ffd182" stroke="#ffd182" stroke-width="1.51"/><path d="M-24,-46L-123,-27L23,114Z" fill="#ffe999" stroke="#ffe999" stroke-width="1.51"/><path d="M-212,159L2,276L23,114Z" fill="#ffd683" stroke="#ffd683" stroke-width="1.51"/><path d="M-113,548L-118,698L33,533Z" fill="#ff9f67" stroke="#ff9f67" stroke-width="1.51"/><path d="M8,405L-117,439L33,533Z" fill="#ffaf6d" stroke="#ffaf6d" stroke-width="1.51"/><path d="M-117,439L-113,548L33,533Z" fill="#ffa86c" stroke="#ffa86c" stroke-width="1.51"/><path d="M2,276L-157,290L8,405Z" fill="#ffc578" stroke="#ffc578" stroke-width="1.51"/><path d="M-157,290L-117,439L8,405Z" fill="#ffbf78" stroke="#ffbf78" stroke-width="1.51"/><path d="M-123,-27L-212,159L23,114Z" fill="#ffe594" stroke="#ffe594" stroke-width="1.51"/><path d="M-39,-169L-123,-27L-24,-46Z" fill="#fff0a8" stroke="#fff0a8" stroke-width="1.51"/><path d="M-118,698L-57,872L-43,777Z" fill="#ea9167" stroke="#ea9167" stroke-width="1.51"/><path d="M-198,-167L-123,-27L-39,-169Z" fill="#fff4b2" stroke="#fff4b2" stroke-width="1.51"/><path d="M-118,698L-110,937L-57,872Z" fill="#e18e69" stroke="#e18e69" stroke-width="1.51"/><path d="M-118,698L-212,159L-110,937Z" fill="#ffa16d" stroke="#ffa16d" stroke-width="1.51"/><path d="M-212,159L-118,698L-113,548Z" fill="#ffb175" stroke="#ffb175" stroke-width="1.51"/><path d="M-157,290L-212,159L-113,548Z" fill="#ffc77f" stroke="#ffc77f" stroke-width="1.51"/><path d="M-117,439L-157,290L-113,548Z" fill="#ffb877" stroke="#ffb877" stroke-width="1.51"/><path d="M-198,-167L-212,159L-123,-27Z" fill="#ffefa7" stroke="#ffefa7" stroke-width="1.51"/></svg>